<?xml version="1.0" encoding="utf-8"?>
<!-- Generator: Adobe Illustrator 21.0.1, SVG Export Plug-In . SVG Version: 6.00 Build 0)  -->
<svg version="1.1" id="Layer_1" xmlns="http://www.w3.org/2000/svg" xmlns:xlink="http://www.w3.org/1999/xlink" x="0px" y="0px"
	 viewBox="0 0 337 313.2" style="enable-background:new 0 0 337 313.2;" xml:space="preserve">
<style type="text/css">
	.st0{fill:#EFE40C;}
</style>
<g>
	<path class="st0" d="M146.6,6.4h42.2v200.1c0,79.4-42.7,103.8-98.9,103.8c-15.5,0-34.4-3.1-45.1-7.1v-70.4
		c8.7,3.1-5.8,43.1,41.7,44.7c37.8,1.3,60.1-15.5,60.1-74.1V6.4z"/>
</g>
<g>
	<path class="st0" d="M166.8,6.4h129.1c8.8,0,16,7.2,16,16v0.4c0,8.8-7.2,16-16,16h-90.5c-8.8,0-16,7.2-16,16v67.4
		c0,8.8,7.2,16,16,16h81.2c8.8,0,16,7.2,16,16v0c0,8.8-7.2,16-16,16h-81.2c-8.8,0-16,7.2-16,16v103.4c0,8.8-7.2,16-16,16h-6.7
		c-8.8,0-16-7.2-16-16V22.4C150.8,13.5,158,6.4,166.8,6.4z"/>
</g>
<g>
	<line x1="168.5" y1="23.4" x2="73.7" y2="23.4"/>
	<g>
		<path class="st0" d="M168.5,5.9c-27.7,0-55.3,0-83,0c-3.9,0-7.8,0-11.8,0c-9.2,0-17.9,8-17.5,17.5c0.4,9.5,7.7,17.5,17.5,17.5
			c27.7,0,55.3,0,83,0c3.9,0,7.8,0,11.8,0c9.2,0,17.9-8,17.5-17.5C185.6,13.9,178.3,5.9,168.5,5.9L168.5,5.9z"/>
	</g>
</g>
</svg>
